# xmcd
#
# Track frame offsets:
#	150
#	25053
#	47641
#	64854
#	86984
#	108198
#	124131
#	145199
#	167870
#	185905
#	204585
#	221839
#
# Disc length: 3247 seconds
#
# Revision: 0
# Processed by: cddbd v1.5.2PL0 Copyright (c) Steve Scherf et al.
# Submitted via: EasyCDDAExtractor 12.0.1.1
#
DISCID=b70cad0c
DTITLE=Sons and Brothers - Measure of a Man
DYEAR=1900
DGENRE=
TTITLE0=Measure of a Man
TTITLE1=Snowin' on Raton
TTITLE2=Buckaroo Man
TTITLE3=The Quiet Faith of Man
TTITLE4=Coyotes
TTITLE5=Cold High Mountain Wind
TTITLE6=The Ol' Double Diamond
TTITLE7=This One Belongs to Me
TTITLE8=Valentine Waltz
TTITLE9=Long Hard Road
TTITLE10=The Cowboy's Song
TTITLE11=Pilgrim
EXTD=
EXTT0=
EXTT1=
EXTT2=
EXTT3=
EXTT4=
EXTT5=
EXTT6=
EXTT7=
EXTT8=
EXTT9=
EXTT10=
EXTT11=
PLAYORDER=
